<svg
          id="wave1"
          viewBox="0 0 1440 490"
          version="1.1"
          xmlns="http://www.w3.org/2000/svg"
        >
          <defs>
            <linearGradient id="sw-gradient-0" x1="0" x2="0" y1="1" y2="0">
              <stop
                stop-color="rgba(250.864, 250.864, 250.864, 1)"
                offset="0%"
              ></stop>
              <stop
                stop-color="rgba(239.48, 129.206, 129.206, 1)"
                offset="100%"
              ></stop>
            </linearGradient>
          </defs>
          <path
            id="wave2"
            fill="url(#sw-gradient-0)"
            d="M0,147L80,138.8C160,131,320,114,480,155.2C640,196,800,294,960,294C1120,294,1280,196,1440,163.3C1600,131,1760,163,1920,179.7C2080,196,2240,196,2400,236.8C2560,278,2720,359,2880,392C3040,425,3200,408,3360,392C3520,376,3680,359,3840,326.7C4000,294,4160,245,4320,228.7C4480,212,4640,229,4800,261.3C4960,294,5120,343,5280,334.8C5440,327,5600,261,5760,228.7C5920,196,6080,196,6240,179.7C6400,163,6560,131,6720,155.2C6880,180,7040,261,7200,253.2C7360,245,7520,147,7680,138.8C7840,131,8000,212,8160,204.2C8320,196,8480,98,8640,65.3C8800,33,8960,65,9120,130.7C9280,196,9440,294,9600,318.5C9760,343,9920,294,10080,228.7C10240,163,10400,82,10560,89.8C10720,98,10880,196,11040,204.2C11200,212,11360,131,11440,89.8L11520,49L11520,490L11440,490C11360,490,11200,490,11040,490C10880,490,10720,490,10560,490C10400,490,10240,490,10080,490C9920,490,9760,490,9600,490C9440,490,9280,490,9120,490C8960,490,8800,490,8640,490C8480,490,8320,490,8160,490C8000,490,7840,490,7680,490C7520,490,7360,490,7200,490C7040,490,6880,490,6720,490C6560,490,6400,490,6240,490C6080,490,5920,490,5760,490C5600,490,5440,490,5280,490C5120,490,4960,490,4800,490C4640,490,4480,490,4320,490C4160,490,4000,490,3840,490C3680,490,3520,490,3360,490C3200,490,3040,490,2880,490C2720,490,2560,490,2400,490C2240,490,2080,490,1920,490C1760,490,1600,490,1440,490C1280,490,1120,490,960,490C800,490,640,490,480,490C320,490,160,490,80,490L0,490Z"
          ></path>
        </svg>