<svg
          id="wave2"
          viewBox="0 0 1440 490"
          version="1.1"
          xmlns="http://www.w3.org/2000/svg"
        >
          <defs>
            <linearGradient id="sw-gradient-0" x1="0" x2="0" y1="1" y2="0">
              <stop stop-color="rgba(255, 255, 255, 1)" offset="0%"></stop>
              <stop
                stop-color="rgba(255, 193.734, 193.734, 1)"
                offset="100%"
              ></stop>
            </linearGradient>
          </defs>
          <path
            id="wave1"
            fill="url(#sw-gradient-0)"
            d="M0,49L60,73.5C120,98,240,147,360,171.5C480,196,600,196,720,163.3C840,131,960,65,1080,40.8C1200,16,1320,33,1440,49C1560,65,1680,82,1800,130.7C1920,180,2040,261,2160,277.7C2280,294,2400,245,2520,220.5C2640,196,2760,196,2880,171.5C3000,147,3120,98,3240,114.3C3360,131,3480,212,3600,277.7C3720,343,3840,392,3960,408.3C4080,425,4200,408,4320,334.8C4440,261,4560,131,4680,89.8C4800,49,4920,98,5040,114.3C5160,131,5280,114,5400,114.3C5520,114,5640,131,5760,171.5C5880,212,6000,278,6120,318.5C6240,359,6360,376,6480,351.2C6600,327,6720,261,6840,196C6960,131,7080,65,7200,32.7C7320,0,7440,0,7560,73.5C7680,147,7800,294,7920,367.5C8040,441,8160,441,8280,441C8400,441,8520,441,8580,441L8640,441L8640,490L8580,490C8520,490,8400,490,8280,490C8160,490,8040,490,7920,490C7800,490,7680,490,7560,490C7440,490,7320,490,7200,490C7080,490,6960,490,6840,490C6720,490,6600,490,6480,490C6360,490,6240,490,6120,490C6000,490,5880,490,5760,490C5640,490,5520,490,5400,490C5280,490,5160,490,5040,490C4920,490,4800,490,4680,490C4560,490,4440,490,4320,490C4200,490,4080,490,3960,490C3840,490,3720,490,3600,490C3480,490,3360,490,3240,490C3120,490,3000,490,2880,490C2760,490,2640,490,2520,490C2400,490,2280,490,2160,490C2040,490,1920,490,1800,490C1680,490,1560,490,1440,490C1320,490,1200,490,1080,490C960,490,840,490,720,490C600,490,480,490,360,490C240,490,120,490,60,490L0,490Z"
          ></path>
          <defs>
            <linearGradient id="sw-gradient-1" x1="0" x2="0" y1="1" y2="0">
              <stop stop-color="rgba(255, 255, 255, 1)" offset="0%"></stop>
              <stop
                stop-color="rgba(241.757, 90.846, 90.846, 1)"
                offset="100%"
              ></stop>
            </linearGradient>
          </defs>
          <path
            fill="url(#sw-gradient-1)"
            d="M0,147L60,196C120,245,240,343,360,343C480,343,600,245,720,236.8C840,229,960,310,1080,302.2C1200,294,1320,196,1440,187.8C1560,180,1680,261,1800,294C1920,327,2040,310,2160,310.3C2280,310,2400,327,2520,310.3C2640,294,2760,245,2880,245C3000,245,3120,294,3240,294C3360,294,3480,245,3600,245C3720,245,3840,294,3960,302.2C4080,310,4200,278,4320,253.2C4440,229,4560,212,4680,187.8C4800,163,4920,131,5040,106.2C5160,82,5280,65,5400,89.8C5520,114,5640,180,5760,245C5880,310,6000,376,6120,408.3C6240,441,6360,441,6480,392C6600,343,6720,245,6840,236.8C6960,229,7080,310,7200,285.8C7320,261,7440,131,7560,81.7C7680,33,7800,65,7920,106.2C8040,147,8160,196,8280,187.8C8400,180,8520,114,8580,81.7L8640,49L8640,490L8580,490C8520,490,8400,490,8280,490C8160,490,8040,490,7920,490C7800,490,7680,490,7560,490C7440,490,7320,490,7200,490C7080,490,6960,490,6840,490C6720,490,6600,490,6480,490C6360,490,6240,490,6120,490C6000,490,5880,490,5760,490C5640,490,5520,490,5400,490C5280,490,5160,490,5040,490C4920,490,4800,490,4680,490C4560,490,4440,490,4320,490C4200,490,4080,490,3960,490C3840,490,3720,490,3600,490C3480,490,3360,490,3240,490C3120,490,3000,490,2880,490C2760,490,2640,490,2520,490C2400,490,2280,490,2160,490C2040,490,1920,490,1800,490C1680,490,1560,490,1440,490C1320,490,1200,490,1080,490C960,490,840,490,720,490C600,490,480,490,360,490C240,490,120,490,60,490L0,490Z"
          ></path>
        </svg>